
<?xml version="1.0" standalone="no"?>
<!DOCTYPE svg PUBLIC "-//W3C//DTD SVG 20010904//EN"
 "http://www.w3.org/TR/2001/REC-SVG-20010904/DTD/svg10.dtd">
<svg version="1.0" xmlns="http://www.w3.org/2000/svg"
 width="192.000000pt" height="192.000000pt" viewBox="0 0 192.000000 192.000000"
 preserveAspectRatio="xMidYMid meet">
<metadata>
Created by potrace 1.14, written by Peter Selinger 2001-2017
</metadata>
<g transform="translate(0.000000,192.000000) scale(0.100000,-0.100000)"
fill="#000000" stroke="none">
<path d="M710 1449 c-32 -7 -70 -39 -70 -60 0 -5 12 -4 26 1 38 15 117 12 170
-6 49 -17 72 -9 60 21 -12 33 -119 58 -186 44z"/>
<path d="M1115 1453 c-80 -18 -113 -43 -95 -73 7 -11 16 -10 51 4 46 19 115
23 167 12 34 -8 39 -1 18 26 -24 32 -82 44 -141 31z"/>
<path d="M1125 1308 c-36 -13 -66 -38 -59 -49 2 -4 20 1 39 13 35 20 87 21
143 3 30 -10 28 9 -2 23 -39 18 -89 22 -121 10z"/>
<path d="M725 1303 c-28 -8 -65 -34 -65 -45 0 -6 8 -7 18 -3 77 33 91 35 138
19 52 -17 63 -15 36 9 -19 18 -94 29 -127 20z"/>
<path d="M499 1278 c-3 -23 1 -112 7 -175 5 -54 3 -61 -12 -60 -10 1 -20 -6
-22 -15 -3 -13 3 -18 21 -18 27 0 28 -3 42 -134 6 -49 13 -65 44 -100 20 -22
45 -54 55 -69 9 -15 25 -31 34 -34 24 -8 72 -54 67 -63 -3 -4 2 -13 11 -20 12
-11 17 -10 30 8 16 23 59 28 99 13 15 -6 11 -9 -22 -14 -23 -4 -50 -5 -60 -2
-11 4 -9 1 4 -6 13 -7 28 -24 35 -40 7 -15 15 -26 19 -23 4 2 19 -7 33 -21 23
-23 31 -25 71 -19 32 4 45 3 45 -6 0 -7 13 -4 38 9 20 10 47 22 60 24 35 8 27
-18 -14 -42 -29 -17 -45 -20 -84 -15 -30 4 -50 2 -54 -5 -10 -16 -45 -13 -94
9 -33 15 -44 26 -49 50 -6 30 -7 31 -47 25 -138 -23 -263 -109 -319 -220 -20
-41 -30 -90 -22 -115 6 -19 16 -20 243 -22 l237 -3 6 -43 c9 -68 23 -76 145
-80 95 -4 109 -2 134 16 21 16 37 20 63 15 27 -4 39 -1 55 15 18 18 25 19 51
9 39 -15 79 3 94 43 8 22 18 30 35 30 24 0 24 2 17 57 -4 32 -18 85 -32 118
-20 48 -34 66 -70 89 -51 33 -149 75 -175 76 -9 0 -20 5 -23 10 -3 6 2 10 12
10 11 0 28 6 38 14 19 13 18 15 -18 32 -35 17 -36 18 -18 35 10 9 32 24 50 33
17 10 37 29 44 44 6 15 26 44 43 64 23 26 34 50 39 85 21 162 25 179 47 179
29 -1 35 24 8 31 -20 5 -21 10 -18 97 3 77 1 91 -13 94 -13 2 -17 -10 -22 -60
-14 -143 -53 -218 -133 -255 -64 -29 -87 -24 -123 26 -26 35 -12 42 19 9 17
-18 20 -19 20 -5 0 9 -12 24 -26 34 -21 13 -30 14 -45 5 -17 -11 -19 -9 -20
15 0 27 -1 27 -9 6 -5 -13 -18 -23 -28 -23 -10 0 -27 -9 -37 -20 -23 -25 -40
-25 -64 -1 -12 12 -27 17 -40 14 -14 -3 -23 0 -27 11 -3 9 -10 16 -15 16 -4 0
-6 -7 -3 -15 5 -13 -40 -64 -58 -65 -19 0 -5 22 25 40 22 14 26 20 14 20 -22
0 -76 -52 -60 -57 8 -3 2 -18 -15 -43 -37 -54 -64 -53 -118 5 -79 85 -123 208
-124 343 0 23 -4 42 -10 42 -5 0 -11 -6 -11 -12z m446 -318 c22 -11 34 -20 27
-20 -7 0 -29 9 -49 20 -21 11 -33 20 -27 20 5 0 27 -9 49 -20z m104 -100 c-14
-8 -62 -13 -112 -11 -18 1 -26 5 -21 12 3 6 17 9 30 6 14 -2 26 -1 28 2 3 4
24 5 47 3 27 -3 37 -7 28 -12z m-208 -7 c20 -10 67 -19 116 -21 69 -4 89 -1
125 17 57 27 63 27 87 -8 17 -24 19 -34 11 -58 -42 -114 -86 -154 -150 -134
-50 15 -59 14 -33 -4 11 -8 47 -21 79 -30 64 -16 88 -31 34 -20 -70 13 -130
37 -140 55 -7 13 -6 19 5 24 8 3 15 14 15 24 0 10 7 27 15 38 21 28 20 29 -35
29 -47 0 -61 -7 -41 -19 5 -3 11 -19 13 -36 4 -27 2 -30 -16 -24 -12 4 -46 22
-76 40 -31 19 -60 34 -67 34 -30 0 -31 74 -1 94 27 19 18 19 59 -1z m52 -191
c15 -16 24 -31 21 -35 -7 -7 -64 43 -64 55 0 15 17 7 43 -20z m217 -126 c0 -3
-4 -8 -10 -11 -5 -3 -10 -1 -10 4 0 6 5 11 10 11 6 0 10 -2 10 -4z m56 -102
c17 -12 36 -15 62 -10 27 4 45 1 60 -10 17 -12 35 -14 72 -9 63 9 70 -4 70
-127 0 -106 -13 -142 -51 -146 -38 -4 -48 15 -51 98 -2 41 -7 75 -13 75 -6 0
-12 -39 -15 -88 -5 -92 -13 -107 -57 -107 -31 0 -37 14 -43 110 -3 49 -9 84
-15 83 -5 -1 -11 -11 -13 -23 -3 -19 -5 -19 -25 -5 -12 8 -34 15 -49 15 -16 0
-28 5 -28 12 0 9 -3 9 -12 0 -16 -16 -38 -15 -38 2 0 7 -7 19 -15 26 -9 8 -15
9 -15 2 0 -6 5 -14 10 -17 20 -12 9 -25 -21 -25 -28 0 -31 3 -27 25 3 14 2 25
-2 25 -3 0 -4 19 0 43 l5 42 55 -3 c37 -2 62 2 75 12 26 20 50 20 81 0z m-156
-169 c-7 -9 -15 -13 -17 -11 -7 7 7 26 19 26 6 0 6 -6 -2 -15z m34 0 c-4 -8
-8 -15 -10 -15 -2 0 -4 7 -4 15 0 8 4 15 10 15 5 0 7 -7 4 -15z m-129 -5 c3
-5 1 -10 -4 -10 -6 0 -11 5 -11 10 0 6 2 10 4 10 3 0 8 -4 11 -10z m55 6 c0
-11 -19 -15 -25 -6 -3 5 1 10 9 10 9 0 16 -2 16 -4z m174 -12 c9 -8 16 -17 16
-19 0 -7 -25 1 -27 9 -1 5 -7 13 -15 17 -9 6 -9 9 -1 9 6 0 19 -7 27 -16z
m-157 -38 c-16 -18 -40 3 -25 22 8 9 14 9 24 1 10 -8 10 -14 1 -23z m46 -95
c-25 -40 -84 -14 -82 37 0 15 3 21 6 15 2 -7 11 -13 19 -13 13 0 19 9 40 65 6
15 10 7 17 -34 7 -36 7 -59 0 -70z m117 54 c-7 -8 -18 -15 -24 -15 -6 0 -3 5
7 11 9 5 18 20 18 32 1 18 2 18 6 4 3 -10 -1 -24 -7 -32z m-66 -14 c-5 -6 -34
20 -34 30 0 5 8 1 18 -8 10 -10 17 -20 16 -22z m36 25 c0 -11 -19 -15 -25 -6
-3 5 1 10 9 10 9 0 16 -2 16 -4z m46 -50 c-8 -33 -39 -50 -66 -36 -30 16 -25
40 9 40 16 0 34 7 41 15 17 20 24 12 16 -19z m-99 -52 c-3 -3 -12 -4 -19 -1
-8 3 -5 6 6 6 11 1 17 -2 13 -5z"/>
</g>
</svg>